<?xml version="1.0" encoding="utf-8"?>
<!-- Generator: Adobe Illustrator 19.0.0, SVG Export Plug-In . SVG Version: 6.00 Build 0)  -->
<svg version="1.1" id="Layer_1" xmlns="http://www.w3.org/2000/svg" xmlns:xlink="http://www.w3.org/1999/xlink" x="0px" y="0px"
	 viewBox="0 0 252 68" style="enable-background:new 0 0 252 68;" xml:space="preserve">
<style type="text/css">
	.st0{fill:#12110B;}
	.st1{fill:#346094;}
</style>
<path id="XMLID_31_" class="st0" d="M16.9,18c-4.1,0-7.6,2.4-9.3,4.6V1L1,6.6l0,0h0V49h6.5V27.2c1.4-1.4,4.2-3.6,6.8-3.6
	c2.5,0,3.5,1.4,3.5,4.4v21h6.5V26.5C24.3,20.9,21.5,18,16.9,18"/>
<path class="st0" d="M27.8,33.8C27.8,22.5,34,18,40.2,18c6.8,0,11.5,5,11.5,16v1.8H34.2c0.3,5.7,2.6,8.5,6.4,8.5
	c3.2,0,5-1.6,6.9-4.1l4.1,3c-2.3,3.7-6.4,6.5-11.3,6.5C33.3,49.6,27.8,44.8,27.8,33.8 M45.7,31.2c-0.3-5-2-7.7-5.5-7.7
	c-2.9,0-5.4,2.1-5.9,7.7H45.7z"/>
<path class="st0" d="M53.7,41.6c0-6.4,5.7-10.6,16.7-12.7v-1.3c0-2.9-1.1-4-3.8-4c-3.4,0-6.4,1.6-8.6,3.5l-3.3-4
	c3.2-3,7.7-5.1,12.7-5.1c6.4,0,9.3,3.3,9.3,9.6v14c0,3.7,0.2,5.9,0.7,7.5H71c-0.3-1.1-0.6-2.1-0.6-3.8c-2.1,2.6-5.4,4.2-9.3,4.2
	C56.8,49.4,53.7,46.6,53.7,41.6 M70.4,41v-7.7c-7.2,1.5-10.3,4-10.3,7.1c0,2.5,1.4,3.7,3.6,3.7C66.5,44.2,68.7,42.8,70.4,41"/>
<path class="st0" d="M80.3,33.8c0-11,4.5-15.8,10.5-15.8c3.5,0,5.8,1.4,7.7,3.8V6.6h6.5v35c0,3.7,0.2,5.9,0.7,7.5h-6.7
	c-0.3-0.9-0.6-3-0.6-4c-1.8,2.3-4.3,4.4-8.1,4.4C84.5,49.5,80.3,44.7,80.3,33.8 M98.6,40.7V26.8c-1.7-2.1-3.7-3.3-6-3.3
	c-3.6,0-5.7,3.1-5.7,10.4c0,7.1,2.1,10.2,5.7,10.2C94.7,44.1,97.3,42.1,98.6,40.7"/>
<path id="XMLID_24_" class="st1" d="M107.4,43.7l4-3.4c2.2,2.8,5.4,4.2,8.4,4.2c3.1,0,5-1.1,5-3.4c0-6.6-15.6-3.3-15.6-14.5
	c0-5.5,4.6-8.7,10.4-8.7c4.3,0,8.3,1.9,10.7,5.2l-3.9,3.6c-1.7-1.9-4.1-3.6-6.9-3.6c-2.8,0-4.2,1.1-4.2,3.2
	c0,6.5,15.5,3.2,15.5,14.5c0,5.7-5.2,8.9-11.2,8.9C114.2,49.6,110.1,47.3,107.4,43.7"/>
<path id="XMLID_23_" class="st1" d="M135.9,41.8v-18h-4.4v-5.2h4.4V7.9h6.5v10.7h6.6v5.2h-6.6V40c0,3.2,0.8,4.2,3.8,4.2
	c0.9,0,2.1-0.2,2.6-0.3v5c-0.6,0.2-2.8,0.4-4.5,0.4C137.9,49.4,135.9,47.1,135.9,41.8"/>
<path id="XMLID_22_" class="st1" d="M152.4,18.6h6.5v4.7h0.1c1.4-2.5,4.4-5.3,9.1-5.3h0.6l-0.2,6c-0.2,0-1-0.1-1.5-0.1
	c-3.6,0-6.4,2.1-8.1,4.8V49h-6.5V18.6z"/>
<path class="st1" d="M168.9,33.8c0-11,5.8-15.8,12.7-15.8c6.8,0,12.7,4.9,12.7,15.8c0,10.8-5.8,15.8-12.7,15.8
	C174.8,49.6,168.9,44.7,168.9,33.8 M187.8,33.8c0-6.1-1.8-10.3-6.1-10.3c-4.2,0-6.2,3.7-6.2,10.3c0,6.2,1.7,10.5,6.2,10.5
	C185.8,44.3,187.8,40.5,187.8,33.8"/>
<path id="XMLID_19_" class="st1" d="M198,18.6h6.5v4c1.8-2.2,5.2-4.6,9.3-4.6c4.6,0,7.5,2.9,7.5,8.5V49h-6.5V28c0-3-1-4.4-3.5-4.4
	c-2.5,0-5.4,2.2-6.8,3.6V49H198V18.6z"/>
<path class="st1" d="M251,18v5.7c-1.1,0-2.6,0.1-4.4,0.6c0.6,1.3,1,2.9,1,4.6c0,6.7-4.4,10.9-11.1,10.9c-1.5,0-2.8-0.2-4-0.6
	c-0.8,0.5-1.2,1.1-1.2,1.9c0,1.1,0.6,1.5,3.1,1.8l4.3,0.5c8.4,0.7,11.5,3.1,11.5,8.1c0,5.7-6,8.9-14.3,8.9c-9.2,0-12.4-2.6-12.4-7
	c0-3,1.9-5.1,4.8-6.5c-1.6-0.9-2.5-2.1-2.5-3.8c0-2,1.5-4,3.6-5.3c-2.7-1.9-4.2-5.1-4.2-8.8c0-6.6,4.5-11,11.3-11
	c3.5,0,6.3,1.1,8.2,3C246.3,19.5,249,18.3,251,18 M229.4,52.4c0,2.8,1.9,3.8,7.4,3.8c4.4,0,7.5-1.2,7.5-3.7c0-2.2-1.1-3.3-6.6-3.8
	l-4.8-0.5c-0.2-0.1-0.5-0.1-0.8-0.1C230.3,49.2,229.4,50.8,229.4,52.4 M241.6,29.1c0-4-1.7-6.3-5.1-6.3c-3.3,0-5.2,2.4-5.2,6.3
	c0,4,1.9,6.3,5.2,6.3C239.8,35.4,241.6,33.1,241.6,29.1"/>
<path id="XMLID_15_" class="st0" d="M16.8,11.2V6.3h-1.3V5.5h1.3V2.8h1v2.7h1.9v0.8h-1.9V11c0,0.8,0.3,1.2,1.2,1.2
	c0.3,0,0.6,0,0.8-0.1V13c-0.2,0-0.6,0.1-1,0.1C17.3,13.1,16.8,12.5,16.8,11.2"/>
<path id="XMLID_14_" class="st0" d="M22.2,2.5h1v4.2c0.7-0.7,1.7-1.3,2.9-1.3c1.5,0,2.2,0.8,2.2,2.2V13h-1V7.7
	c0-1.1-0.5-1.6-1.5-1.6c-1,0-1.8,0.5-2.6,1.3V13h-1V2.5z"/>
<path class="st0" d="M30.7,9.2c0-2.7,1.7-3.9,3.3-3.9c1.7,0,3.1,1.3,3.1,3.9v0.2h-5.4c0,1.8,1.1,2.9,2.4,2.9c1.1,0,1.8-0.5,2.3-1.4
	l0.6,0.5c-0.7,1.1-1.6,1.7-3,1.7C32.2,13.1,30.7,11.8,30.7,9.2 M36.1,8.6C36,7.2,35.3,6.2,34,6.2c-1.1,0-2.1,0.8-2.3,2.5H36.1z"/>
<path class="st0" d="M94.2,56.3h3.5c2.3,0,3.7,0.9,3.7,2.9c0,2.1-1.6,3-3.8,3h-2.4v4.7h-1V56.3z M97.6,61.2c1.7,0,2.7-0.5,2.7-2.1
	c0-1.4-1-2-2.7-2h-2.4v4H97.6z"/>
<path class="st0" d="M104,56.3h3.5c2.3,0,3.6,1,3.6,2.8c0,1.7-1,2.6-2.5,2.8l2.7,4.8h-1.1l-2.6-4.7H105v4.7h-1V56.3z M107.5,61.2
	c1.7,0,2.7-0.5,2.7-2c0-1.4-1-2-2.7-2H105v4H107.5z"/>
<path class="st0" d="M113.6,61.5c0-3.3,1.9-5.5,4.4-5.5c2.6,0,4.4,2.2,4.4,5.5c0,3.3-1.9,5.5-4.4,5.5
	C115.4,67,113.6,64.8,113.6,61.5 M121.4,61.5c0-2.9-1.4-4.5-3.4-4.5c-2,0-3.4,1.7-3.4,4.5c0,2.9,1.4,4.5,3.4,4.5
	C120,66.1,121.4,64.4,121.4,61.5"/>
<path id="XMLID_5_" class="st0" d="M123.8,65.5l0.7-0.5c0.5,0.7,1,1.1,1.8,1.1c1.1,0,1.9-0.6,1.9-2.1v-7.7h1V64c0,2-1.1,3-2.8,3
	C125.1,67,124.3,66.4,123.8,65.5"/>
<polygon id="XMLID_4_" class="st0" points="132.5,56.3 138.8,56.3 138.8,57.2 133.5,57.2 133.5,60.8 137.5,60.8 137.5,61.7 
	133.5,61.7 133.5,65.9 139.1,65.9 139.1,66.8 132.5,66.8 "/>
<path id="XMLID_3_" class="st0" d="M140.8,61.5c0-3.2,1.7-5.4,4.4-5.4c2.1,0,3.3,1.3,3.8,3.2l-1,0.2c-0.5-1.7-1.2-2.5-2.9-2.5
	c-2,0-3.3,1.8-3.3,4.5c0,2.9,1.3,4.6,3.4,4.6c1.6,0,2.5-0.9,3-2.7l1,0.2c-0.5,2.1-1.9,3.4-4,3.4C142.5,67,140.8,64.9,140.8,61.5"/>
<polygon id="XMLID_2_" class="st0" points="154,57.2 150.6,57.2 150.6,56.3 158.4,56.3 158.4,57.2 155,57.2 155,66.8 154,66.8 "/>
<path id="XMLID_1_" class="st0" d="M16.9,18c-4.1,0-7.5,2.4-9.3,4.5v4.6c1.4-1.4,4.2-3.5,6.7-3.5c2.5,0,3.5,1.4,3.5,4.4v21h6.5V26.5
	C24.3,20.9,21.5,18,16.9,18"/>
</svg>
