<?xml version="1.0" encoding="utf-8"?>
<!-- Generator: Adobe Illustrator 20.0.0, SVG Export Plug-In . SVG Version: 6.00 Build 0)  -->
<svg version="1.1" id="Layer_1" xmlns="http://www.w3.org/2000/svg" xmlns:xlink="http://www.w3.org/1999/xlink" x="0px" y="0px"
	 viewBox="0 0 354.7 56.5" style="enable-background:new 0 0 354.7 56.5;" xml:space="preserve">
<style type="text/css">
	.st0{fill:#151410;}
	.st1{fill:#346195;}
	.st2{fill:#FFFFFF;stroke:#010101;stroke-width:0.5;stroke-miterlimit:10;}
</style>
<g>
	<path id="XMLID_20_" class="st0" d="M15.1,15.1c-3.4,0-6.3,2-7.7,3.8V1L2,5.6l0,0l0,0v35.1h5.4v-18c1.2-1.2,3.5-3,5.6-3
		c2.1,0,2.9,1.2,2.9,3.6v17.4h5.4V22.1C21.3,17.5,18.9,15.1,15.1,15.1"/>
	<path class="st0" d="M24.2,28.1c0-9.3,5.1-13.1,10.3-13.1c5.6,0,9.5,4.1,9.5,13.2v1.5H29.4c0.2,4.7,2.2,7,5.3,7
		c2.6,0,4.1-1.3,5.7-3.4l3.4,2.5c-1.9,3.1-5.3,5.4-9.3,5.4C28.7,41.2,24.2,37.2,24.2,28.1 M39,26c-0.2-4.1-1.7-6.4-4.5-6.4
		c-2.4,0-4.5,1.7-4.9,6.4H39z"/>
	<path class="st0" d="M45.6,34.6c0-5.3,4.7-8.8,13.8-10.5V23c0-2.4-0.9-3.3-3.1-3.3c-2.8,0-5.3,1.3-7.1,2.9l-2.7-3.3
		c2.6-2.5,6.4-4.2,10.5-4.2c5.3,0,7.7,2.7,7.7,7.9v11.6c0,3.1,0.2,4.9,0.6,6.2h-5.3c-0.2-0.9-0.5-1.7-0.5-3.1
		c-1.7,2.2-4.5,3.5-7.7,3.5C48.1,41,45.6,38.7,45.6,34.6 M59.4,34.1v-6.4c-6,1.2-8.5,3.3-8.5,5.9c0,2.1,1.2,3.1,3,3.1
		C56.2,36.7,58,35.6,59.4,34.1"/>
	<path class="st0" d="M67.6,28.1c0-9.1,3.7-13.1,8.7-13.1c2.9,0,4.8,1.2,6.4,3.1V5.6H88v28.9c0,3.1,0.2,4.9,0.6,6.2H83
		c-0.2-0.7-0.5-2.5-0.5-3.3c-1.5,1.9-3.6,3.6-6.7,3.6C71.1,41.1,67.6,37.1,67.6,28.1 M82.7,33.8V22.3c-1.4-1.7-3.1-2.7-5-2.7
		c-3,0-4.7,2.6-4.7,8.6c0,5.9,1.7,8.4,4.7,8.4C79.5,36.6,81.6,35,82.7,33.8"/>
	<path id="XMLID_18_" class="st1" d="M90,36.3l3.3-2.8c1.8,2.3,4.5,3.5,6.9,3.5c2.6,0,4.1-0.9,4.1-2.8c0-5.5-12.9-2.7-12.9-12
		c0-4.5,3.8-7.2,8.6-7.2c3.6,0,6.9,1.6,8.9,4.3l-3.2,3c-1.4-1.6-3.4-3-5.7-3s-3.5,0.9-3.5,2.6c0,5.4,12.8,2.6,12.8,12
		c0,4.7-4.3,7.4-9.3,7.4C95.6,41.2,92.2,39.3,90,36.3"/>
	<path id="XMLID_17_" class="st1" d="M113.6,34.7V19.8h-3.6v-4.3h3.6V6.7h5.4v8.9h5.5v4.3h-5.5v13.4c0,2.6,0.7,3.5,3.1,3.5
		c0.7,0,1.7-0.2,2.2-0.2v4.1c-0.5,0.2-2.3,0.3-3.7,0.3C115.2,41,113.6,39.1,113.6,34.7"/>
	<path id="XMLID_16_" class="st1" d="M127.2,15.5h5.4v3.9h0.1c1.2-2.1,3.6-4.4,7.5-4.4h0.5l-0.2,5c-0.2,0-0.8-0.1-1.2-0.1
		c-3,0-5.3,1.7-6.7,4v16.8h-5.4L127.2,15.5L127.2,15.5z"/>
	<path class="st1" d="M140.9,28.1c0-9.1,4.8-13.1,10.5-13.1c5.6,0,10.5,4.1,10.5,13.1c0,8.9-4.8,13.1-10.5,13.1
		C145.7,41.2,140.9,37.1,140.9,28.1 M156.5,28.1c0-5-1.5-8.5-5-8.5c-3.5,0-5.1,3.1-5.1,8.5c0,5.1,1.4,8.7,5.1,8.7
		C154.8,36.8,156.5,33.7,156.5,28.1"/>
	<path id="XMLID_13_" class="st1" d="M164.9,15.5h5.4v3.3c1.5-1.8,4.3-3.8,7.7-3.8c3.8,0,6.2,2.4,6.2,7v18.6h-5.4V23.3
		c0-2.5-0.8-3.6-2.9-3.6c-2.1,0-4.5,1.8-5.6,3v18h-5.4V15.5z"/>
	<path class="st1" d="M208.8,15.1v4.7c-0.9,0-2.2,0.1-3.6,0.5c0.5,1.1,0.8,2.4,0.8,3.8c0,5.5-3.6,9-9.2,9c-1.2,0-2.3-0.2-3.3-0.5
		c-0.7,0.4-1,0.9-1,1.6c0,0.9,0.5,1.2,2.6,1.5l3.6,0.4c6.9,0.6,9.5,2.6,9.5,6.7c0,4.7-5,7.4-11.8,7.4c-7.6,0-10.3-2.2-10.3-5.8
		c0-2.5,1.6-4.2,4-5.4c-1.3-0.7-2.1-1.7-2.1-3.1c0-1.7,1.2-3.3,3-4.4c-2.2-1.6-3.5-4.2-3.5-7.3c0-5.5,3.7-9.1,9.3-9.1
		c2.9,0,5.2,0.9,6.8,2.5C204.9,16.3,207.1,15.3,208.8,15.1 M190.9,43.5c0,2.3,1.6,3.1,6.1,3.1c3.6,0,6.2-1,6.2-3.1
		c0-1.8-0.9-2.7-5.5-3.1l-4-0.4c-0.2-0.1-0.4-0.1-0.7-0.1C191.6,40.9,190.9,42.2,190.9,43.5 M201,24.2c0-3.3-1.4-5.2-4.2-5.2
		c-2.7,0-4.3,2-4.3,5.2c0,3.3,1.6,5.2,4.3,5.2C199.5,29.4,201,27.5,201,24.2"/>
	<path id="XMLID_12_" class="st0" d="M15.1,9.4V5.4H14V4.7h1.1V2.5h0.8v2.2h1.6v0.7h-1.6v3.9c0,0.7,0.2,1,1,1c0.2,0,0.5,0,0.7-0.1
		v0.7c-0.2,0-0.5,0.1-0.8,0.1C15.5,11,15.1,10.5,15.1,9.4"/>
	<path id="XMLID_11_" class="st0" d="M19.5,2.2h0.8v3.5c0.6-0.6,1.4-1.1,2.4-1.1c1.2,0,1.8,0.7,1.8,1.8v4.5h-0.8V6.5
		c0-0.9-0.4-1.3-1.2-1.3S21,5.6,20.4,6.3v4.6h-0.8V2.2z"/>
	<path class="st0" d="M26.6,7.8c0-2.2,1.4-3.2,2.7-3.2c1.4,0,2.6,1.1,2.6,3.2v0.2h-4.5c0,1.5,0.9,2.4,2,2.4c0.9,0,1.5-0.4,1.9-1.2
		l0.5,0.4c-0.6,0.9-1.3,1.4-2.5,1.4C27.8,11,26.6,9.9,26.6,7.8 M31,7.3c-0.1-1.2-0.7-2-1.7-2c-0.9,0-1.7,0.7-1.9,2.1L31,7.3L31,7.3z
		"/>
	<path class="st0" d="M79.1,46.7H82c1.9,0,3.1,0.7,3.1,2.4c0,1.7-1.3,2.5-3.1,2.5h-2v3.9h-0.8C79.1,55.5,79.1,46.7,79.1,46.7z
		 M81.9,50.8c1.4,0,2.2-0.4,2.2-1.7c0-1.2-0.8-1.7-2.2-1.7h-2v3.3L81.9,50.8L81.9,50.8z"/>
	<path class="st0" d="M87.2,46.7h2.9c1.9,0,3,0.8,3,2.3c0,1.4-0.8,2.2-2.1,2.3l2.2,4h-0.9l-2.2-3.9H88v3.9h-0.8V46.7z M90.1,50.8
		c1.4,0,2.2-0.4,2.2-1.7c0-1.2-0.8-1.7-2.2-1.7H88v3.3H90.1z"/>
	<path class="st0" d="M95.1,51c0-2.7,1.6-4.5,3.6-4.5c2.2,0,3.6,1.8,3.6,4.5c0,2.7-1.6,4.5-3.6,4.5C96.6,55.6,95.1,53.8,95.1,51
		 M101.6,51c0-2.4-1.2-3.7-2.8-3.7S96,48.7,96,51c0,2.4,1.2,3.7,2.8,3.7C100.4,54.8,101.6,53.4,101.6,51"/>
	<path id="XMLID_10_" class="st0" d="M103.6,54.3l0.6-0.4c0.4,0.6,0.8,0.9,1.5,0.9c0.9,0,1.6-0.5,1.6-1.7v-6.4h0.8v6.4
		c0,1.7-0.9,2.5-2.3,2.5C104.6,55.6,104,55.1,103.6,54.3"/>
	<polygon id="XMLID_9_" class="st0" points="110.8,46.7 116,46.7 116,47.5 111.6,47.5 111.6,50.5 114.9,50.5 114.9,51.2 111.6,51.2 
		111.6,54.7 116.2,54.7 116.2,55.4 110.8,55.4 	"/>
	<path id="XMLID_8_" class="st0" d="M117.6,51c0-2.6,1.4-4.5,3.6-4.5c1.7,0,2.7,1.1,3.1,2.6l-0.8,0.2c-0.4-1.4-1-2.1-2.4-2.1
		c-1.7,0-2.7,1.5-2.7,3.7c0,2.4,1.1,3.8,2.8,3.8c1.3,0,2.1-0.7,2.5-2.2l0.8,0.2c-0.4,1.7-1.6,2.8-3.3,2.8
		C119,55.6,117.6,53.8,117.6,51"/>
	<polygon id="XMLID_7_" class="st0" points="128.5,47.5 125.7,47.5 125.7,46.7 132.2,46.7 132.2,47.5 129.4,47.5 129.4,55.4 
		128.5,55.4 	"/>
	<path id="XMLID_6_" class="st0" d="M15.1,15.1c-3.4,0-6.2,2-7.7,3.7v3.8c1.2-1.2,3.5-2.9,5.5-2.9s2.9,1.2,2.9,3.6v17.4h5.4V22.1
		C21.3,17.5,18.9,15.1,15.1,15.1"/>
</g>
<g>
	<path class="st0" d="M228.9,28.7h-1.1v-3.5H224v3.5H223v-7.8h1.1v3.5h3.8v-3.5h1.1V28.7z"/>
	<path class="st0" d="M236.5,25.1H233v2.8h4.1v0.8h-5.2v-7.8h5.1v0.8H233v2.5h3.6V25.1z"/>
	<path class="st0" d="M243.7,26.7h-3.3l-0.7,2h-1.1l3-7.8h0.9l3,7.8h-1.1L243.7,26.7z M240.7,25.8h2.6l-1.3-3.6h0L240.7,25.8z"/>
	<path class="st0" d="M248.7,27.9h3.7v0.8h-4.8v-7.8h1.1V27.9z"/>
	<path class="st0" d="M255.8,28.7h-1.1v-7.8h1.1V28.7z"/>
	<path class="st0" d="M264.8,28.7h-1.1l-3.8-6l0,0v6h-1.1v-7.8h1.1l3.8,6l0,0v-6h1.1V28.7z"/>
	<path class="st0" d="M273.5,27.7c-0.2,0.3-0.5,0.5-1,0.8s-1.1,0.4-1.8,0.4c-0.9,0-1.7-0.3-2.3-0.9s-0.9-1.4-0.9-2.3V24
		c0-0.9,0.3-1.7,0.9-2.3c0.6-0.6,1.3-0.9,2.2-0.9c0.9,0,1.6,0.2,2.1,0.7s0.8,1,0.8,1.7l0,0h-1c0-0.5-0.2-0.8-0.5-1.1
		s-0.8-0.4-1.4-0.4c-0.6,0-1.1,0.2-1.4,0.7s-0.5,1-0.5,1.7v1.6c0,0.7,0.2,1.3,0.6,1.7c0.4,0.4,0.9,0.7,1.6,0.7
		c0.4,0,0.8-0.1,1.1-0.2c0.3-0.1,0.5-0.3,0.6-0.4v-1.8h-1.7v-0.8h2.8V27.7z"/>
	<path class="st0" d="M285.6,21.7h-2.5v7H282v-7h-2.5v-0.8h6.1V21.7z"/>
	<path class="st0" d="M293.7,28.7h-1.1v-3.5h-3.8v3.5h-1.1v-7.8h1.1v3.5h3.8v-3.5h1.1V28.7z"/>
	<path class="st0" d="M301.4,25.1h-3.6v2.8h4.1v0.8h-5.2v-7.8h5.1v0.8h-4.1v2.5h3.6V25.1z"/>
	<path class="st0" d="M314.1,28.7H313v-3.5h-3.8v3.5h-1.1v-7.8h1.1v3.5h3.8v-3.5h1.1V28.7z"/>
	<path class="st0" d="M318.2,28.7h-1.1v-7.8h1.1V28.7z"/>
	<path class="st0" d="M321.3,28.7v-7.8h2.4c1,0,1.8,0.3,2.5,0.9c0.6,0.6,0.9,1.4,0.9,2.4v1.1c0,1-0.3,1.8-0.9,2.4
		c-0.6,0.6-1.4,0.9-2.5,0.9H321.3z M322.4,21.7v6.2h1.3c0.7,0,1.3-0.2,1.7-0.7c0.4-0.5,0.6-1.1,0.6-1.8v-1.1c0-0.7-0.2-1.3-0.6-1.8
		c-0.4-0.5-1-0.7-1.7-0.7H322.4z"/>
	<path class="st0" d="M329.6,28.7v-7.8h2.4c1,0,1.8,0.3,2.5,0.9c0.6,0.6,0.9,1.4,0.9,2.4v1.1c0,1-0.3,1.8-0.9,2.4
		c-0.6,0.6-1.4,0.9-2.5,0.9H329.6z M330.7,21.7v6.2h1.3c0.7,0,1.3-0.2,1.7-0.7c0.4-0.5,0.6-1.1,0.6-1.8v-1.1c0-0.7-0.2-1.3-0.6-1.8
		c-0.4-0.5-1-0.7-1.7-0.7H330.7z"/>
	<path class="st0" d="M342.6,25.1h-3.6v2.8h4.1v0.8H338v-7.8h5.1v0.8h-4.1v2.5h3.6V25.1z"/>
	<path class="st0" d="M351.4,28.7h-1.1l-3.8-6l0,0v6h-1.1v-7.8h1.1l3.8,6l0,0v-6h1.1V28.7z"/>
	<path class="st0" d="M224.5,38l0.1,1l0,0l0.2-1l1.4-5.1h0.9l1.4,5.1l0.2,1h0l0.2-1l1.2-5.1h1.1l-1.9,7.8h-0.9l-1.5-5.4l-0.1-0.7h0
		l-0.1,0.7l-1.6,5.4h-0.9l-1.9-7.8h1.1L224.5,38z"/>
	<path class="st0" d="M239.7,37.5c0,1-0.3,1.7-0.9,2.4s-1.4,0.9-2.3,0.9c-0.9,0-1.7-0.3-2.2-0.9s-0.9-1.4-0.9-2.4v-1.4
		c0-1,0.3-1.7,0.9-2.4s1.3-1,2.2-1c0.9,0,1.7,0.3,2.3,0.9c0.6,0.6,0.9,1.4,0.9,2.4V37.5z M238.6,36.1c0-0.7-0.2-1.3-0.6-1.8
		s-0.9-0.7-1.6-0.7c-0.6,0-1.1,0.2-1.5,0.7s-0.6,1-0.6,1.8v1.4c0,0.7,0.2,1.3,0.6,1.8s0.9,0.7,1.5,0.7c0.7,0,1.2-0.2,1.6-0.7
		c0.4-0.5,0.6-1,0.6-1.8V36.1z"/>
	<path class="st0" d="M248.1,32.9v5.3c0,0.9-0.3,1.5-0.8,2c-0.6,0.5-1.3,0.7-2.2,0.7c-0.9,0-1.6-0.2-2.1-0.7c-0.5-0.5-0.8-1.1-0.8-2
		v-5.3h1.1v5.3c0,0.6,0.2,1,0.5,1.3c0.3,0.3,0.8,0.5,1.3,0.5c0.6,0,1-0.2,1.4-0.5c0.4-0.3,0.5-0.8,0.5-1.3v-5.3H248.1z"/>
	<path class="st0" d="M256.8,40.7h-1.1l-3.8-6l0,0v6h-1.1v-7.8h1.1l3.8,6l0,0v-6h1.1V40.7z"/>
	<path class="st0" d="M259.9,40.7v-7.8h2.4c1,0,1.8,0.3,2.5,0.9c0.6,0.6,0.9,1.4,0.9,2.4v1.1c0,1-0.3,1.8-0.9,2.4
		c-0.6,0.6-1.4,0.9-2.5,0.9H259.9z M260.9,33.7v6.2h1.3c0.7,0,1.3-0.2,1.7-0.7c0.4-0.5,0.6-1.1,0.6-1.8v-1.1c0-0.7-0.2-1.3-0.6-1.8
		c-0.4-0.5-1-0.7-1.7-0.7H260.9z"/>
	<path class="st0" d="M272.5,38.7c0-0.4-0.1-0.7-0.4-0.9c-0.3-0.2-0.7-0.4-1.4-0.6c-0.8-0.2-1.5-0.5-1.9-0.9
		c-0.5-0.4-0.7-0.9-0.7-1.4c0-0.6,0.2-1.1,0.7-1.5c0.5-0.4,1.1-0.6,1.9-0.6c0.9,0,1.5,0.2,2,0.7s0.8,1,0.7,1.6l0,0h-1
		c0-0.5-0.2-0.8-0.5-1.1s-0.7-0.4-1.3-0.4c-0.5,0-0.9,0.1-1.2,0.4c-0.3,0.2-0.4,0.5-0.4,0.9c0,0.3,0.2,0.6,0.5,0.9
		c0.3,0.2,0.8,0.4,1.5,0.6c0.8,0.2,1.5,0.5,1.9,0.9s0.6,0.9,0.6,1.5c0,0.6-0.3,1.1-0.8,1.5s-1.2,0.6-2,0.6c-0.8,0-1.5-0.2-2.1-0.6
		c-0.6-0.4-0.9-1-0.9-1.7l0,0h1c0,0.5,0.2,0.9,0.6,1.1c0.4,0.3,0.8,0.4,1.4,0.4c0.5,0,1-0.1,1.3-0.3S272.5,39.1,272.5,38.7z"/>
	<path class="st0" d="M285.9,37.5c0,1-0.3,1.7-0.9,2.4s-1.4,0.9-2.3,0.9c-0.9,0-1.7-0.3-2.2-0.9s-0.9-1.4-0.9-2.4v-1.4
		c0-1,0.3-1.7,0.9-2.4s1.3-1,2.2-1c0.9,0,1.7,0.3,2.3,0.9c0.6,0.6,0.9,1.4,0.9,2.4V37.5z M284.9,36.1c0-0.7-0.2-1.3-0.6-1.8
		s-0.9-0.7-1.6-0.7c-0.6,0-1.1,0.2-1.5,0.7s-0.6,1-0.6,1.8v1.4c0,0.7,0.2,1.3,0.6,1.8s0.9,0.7,1.5,0.7c0.7,0,1.2-0.2,1.6-0.7
		c0.4-0.5,0.6-1,0.6-1.8V36.1z"/>
	<path class="st0" d="M293.2,37.2h-3.6v3.5h-1.1v-7.8h5.2v0.8h-4.1v2.7h3.6V37.2z"/>
	<path class="st0" d="M301.5,38l0.1,1l0,0l0.2-1l1.4-5.1h0.9l1.4,5.1l0.2,1h0l0.2-1l1.2-5.1h1.1l-1.9,7.8h-0.9l-1.5-5.4l-0.1-0.7h0
		l-0.1,0.7l-1.6,5.4h-0.9l-1.9-7.8h1.1L301.5,38z"/>
	<path class="st0" d="M314.8,38.7h-3.3l-0.7,2h-1.1l3-7.8h0.9l3,7.8h-1.1L314.8,38.7z M311.8,37.8h2.6l-1.3-3.6h0L311.8,37.8z"/>
	<path class="st0" d="M319.8,37.3v3.4h-1.1v-7.8h2.8c0.9,0,1.5,0.2,2,0.6s0.7,0.9,0.7,1.7c0,0.4-0.1,0.8-0.3,1
		c-0.2,0.3-0.5,0.5-0.9,0.7c0.4,0.1,0.7,0.4,0.9,0.7c0.2,0.3,0.3,0.7,0.3,1.2v0.7c0,0.2,0,0.5,0.1,0.7c0.1,0.2,0.1,0.4,0.3,0.5v0.1
		h-1.1c-0.1-0.1-0.2-0.3-0.3-0.5s-0.1-0.5-0.1-0.7v-0.7c0-0.4-0.1-0.8-0.4-1s-0.6-0.4-1-0.4H319.8z M319.8,36.5h1.7
		c0.6,0,1-0.1,1.3-0.3c0.3-0.2,0.4-0.6,0.4-1c0-0.4-0.1-0.8-0.4-1s-0.7-0.4-1.2-0.4h-1.8V36.5z"/>
</g>
<line class="st2" x1="215.3" y1="15.7" x2="215.3" y2="47.1"/>
</svg>
