<?xml version="1.0" encoding="utf-8"?>
<!-- Generator: Adobe Illustrator 19.0.0, SVG Export Plug-In . SVG Version: 6.00 Build 0)  -->
<svg version="1.1" id="Layer_1" xmlns="http://www.w3.org/2000/svg" xmlns:xlink="http://www.w3.org/1999/xlink" x="0px" y="0px"
	 viewBox="0 0 40 30" style="enable-background:new 0 0 40 30;" width="40" height="30" xml:space="preserve">
<style type="text/css">
	.st0{fill:#6D9DC9;}
</style>
<g>
	<path class="st0" d="M19.8,3.5C18,4.4,16.4,5.3,15,6.2c-1.5,0.9-2.7,1.8-3.8,2.7c-1.2,1.1-2.3,2.2-3.1,3.4C7.3,13.5,6.6,15.1,6,17
		h2.4c2.3,0,3.9,0.6,5,1.7c1,1.1,1.5,2.4,1.5,3.8c0,1.8-0.7,3.5-2,5.1C11.5,29.2,9.6,30,7.3,30c-2.5,0-4.3-0.7-5.5-2.1
		C0.6,26.5,0,24.7,0,22.4c0-3,0.6-5.7,1.9-8.1c1.3-2.4,2.9-4.6,4.8-6.5c1.9-1.8,3.9-3.4,5.9-4.6c2.1-1.2,3.9-2.3,5.4-3.1L19.8,3.5z
		 M40,3.5c-1.7,0.9-3.3,1.8-4.8,2.7c-1.5,0.9-2.7,1.8-3.8,2.7c-1.2,1.1-2.3,2.2-3.1,3.4c-0.8,1.2-1.5,2.8-2.1,4.7h2.4
		c2.3,0,3.9,0.6,5,1.7c1,1.1,1.5,2.4,1.5,3.8c0,1.8-0.7,3.5-2,5.1c-1.3,1.6-3.2,2.4-5.5,2.4c-2.5,0-4.3-0.7-5.5-2.1
		c-1.2-1.4-1.8-3.2-1.8-5.5c0-3,0.6-5.7,1.9-8.1c1.3-2.4,2.9-4.6,4.8-6.5c1.9-1.8,3.9-3.4,5.9-4.6C35,1.9,36.8,0.8,38.4,0L40,3.5z"
		/>
</g>
</svg>
