<?xml version="1.0" encoding="utf-8"?>
<!-- Generator: Adobe Illustrator 19.0.0, SVG Export Plug-In . SVG Version: 6.00 Build 0)  -->
<svg version="1.1" id="Layer_1" xmlns="http://www.w3.org/2000/svg" xmlns:xlink="http://www.w3.org/1999/xlink" x="0px" y="0px"
	 viewBox="0 0 70 140" style="enable-background:new 0 0 70 140;" xml:space="preserve" width="70" height="140">
<style type="text/css">
	.st0{fill:#E1E1E1;}
	.st1{fill:#B3B3B3;}
</style>
<g>
	<path class="st0" d="M17.6,1c9.1,0,16.6,7.4,16.6,16.6C34.1,26,27.8,33,19.6,34V21.7h5.7l0.5-4.1h-6.2v-2.1c0-1.1,0.9-2.1,2.1-2.1
		h4.1V9.3h-4.1c-3.4,0-6.2,2.8-6.2,6.2v2.1h-3.1v4.1h3.1V34C7.3,33,1,26,1,17.6C1,8.4,8.4,1,17.6,1L17.6,1z M17.6,1"/>
</g>
<g>
	<path class="st0" d="M17.5,36C8.4,36,1,43.4,1,52.5C1,61.6,8.4,69,17.5,69C26.6,69,34,61.6,34,52.5C34,43.4,26.6,36,17.5,36
		L17.5,36z M24.9,48.7c0,0.2,0,0.3,0,0.5c0,5-3.8,10.8-10.8,10.8c-2.1,0-4.1-0.6-5.8-1.7c0.3,0,0.6,0.1,0.9,0.1
		c1.8,0,3.4-0.6,4.7-1.6c-1.7,0-3.1-1.1-3.5-2.6c0.2,0,0.5,0.1,0.7,0.1c0.3,0,0.7,0,1-0.1c-1.7-0.3-3-1.9-3-3.7c0,0,0,0,0,0
		c0.5,0.3,1.1,0.5,1.7,0.5c-1-0.7-1.7-1.8-1.7-3.2c0-0.7,0.2-1.3,0.5-1.9c1.9,2.3,4.7,3.8,7.8,4c-0.1-0.3-0.1-0.6-0.1-0.9
		c0-2.1,1.7-3.8,3.8-3.8c1.1,0,2.1,0.5,2.8,1.2c0.9-0.2,1.7-0.5,2.4-0.9c-0.3,0.9-0.9,1.6-1.7,2.1c0.8-0.1,1.5-0.3,2.2-0.6
		C26.2,47.5,25.6,48.2,24.9,48.7L24.9,48.7z M24.9,48.7"/>
</g>
<g>
	<path class="st0" d="M15.3,90.2c-0.1-0.1-0.2-0.1-0.3-0.2c-0.3-0.1-0.7-0.2-1.1-0.2h0c-1.7,0-3.1,1-3.1,2.2c0,1.3,1.3,2.2,2.9,2.2
		c2.1,0,3.2-0.7,3.2-2.2c0-0.1,0-0.3,0-0.4C16.6,91.1,16.1,90.8,15.3,90.2L15.3,90.2z M15.3,90.2"/>
	<path class="st0" d="M14.1,85.9L14.1,85.9c0.4,0,0.7-0.2,1-0.5c0.4-0.5,0.6-1.2,0.5-2c-0.2-1.5-1.2-2.7-2.3-2.7l0,0
		c-0.4,0-0.7,0.2-1,0.5c-0.4,0.5-0.6,1.2-0.5,2C12,84.6,13,85.8,14.1,85.9L14.1,85.9z M14.1,85.9"/>
	<path class="st0" d="M17.5,71C8.4,71,1,78.4,1,87.5C1,96.6,8.4,104,17.5,104c9.1,0,16.5-7.4,16.5-16.5C34,78.4,26.6,71,17.5,71
		L17.5,71z M15.6,95.5c-0.6,0.2-1.3,0.3-2,0.3c-0.8,0-1.5-0.1-2.3-0.3c-1.4-0.3-2.4-1-2.8-1.8c-0.2-0.4-0.3-0.8-0.3-1.2
		c0-0.4,0.1-0.8,0.3-1.2c0.7-1.6,2.7-2.7,4.9-2.7h0.1c-0.2-0.3-0.3-0.6-0.3-1c0-0.2,0-0.3,0.1-0.5c-2.3-0.1-4-1.7-4-3.9
		c0-1.6,1.2-3.1,3-3.7c0.5-0.2,1.1-0.3,1.6-0.3h4.9c0.2,0,0.3,0.1,0.4,0.3c0.1,0.2,0,0.3-0.1,0.4l-1.1,0.8c-0.1,0-0.1,0.1-0.2,0.1
		h-0.4c0.5,0.6,0.8,1.5,0.8,2.5c0,1.1-0.5,2.1-1.5,2.9c-0.8,0.6-0.8,0.8-0.8,1.1c0,0.2,0.5,0.8,1.1,1.2c1.4,1,1.9,1.9,1.9,3.5
		C18.8,93.5,17.5,95,15.6,95.5L15.6,95.5z M26.7,87.1c0,0.2-0.2,0.4-0.4,0.4h-2.8v2.8c0,0.2-0.2,0.4-0.4,0.4h-0.8
		c-0.2,0-0.4-0.2-0.4-0.4v-2.8h-2.8c-0.2,0-0.4-0.2-0.4-0.4v-0.8c0-0.2,0.2-0.4,0.4-0.4h2.8v-2.8c0-0.2,0.2-0.4,0.4-0.4h0.8
		c0.2,0,0.4,0.2,0.4,0.4v2.8h2.8c0.2,0,0.4,0.2,0.4,0.4V87.1z M26.7,87.1"/>
</g>
<path class="st0" d="M17.5,106C8.4,106,1,113.4,1,122.5c0,9.1,7.4,16.5,16.5,16.5c9.1,0,16.5-7.4,16.5-16.5
	C34,113.4,26.6,106,17.5,106z M10.1,115.9h14.8c0.3,0,0.6,0.1,0.8,0.3l-8.2,7.1l-8.2-7.1C9.5,116.1,9.8,115.9,10.1,115.9z
	 M8.1,117.3l6,5.2l-6,5.1V117.3z M24.9,129.1H10.1c-0.3,0-0.6-0.1-0.8-0.3l6.1-5.2l2.1,1.9l2.1-1.9l6.1,5.2
	C25.5,128.9,25.2,129.1,24.9,129.1z M26.9,127.5l-6-5.1l6-5.2V127.5z"/>
<g id="XMLID_57_">
	<path id="XMLID_58_" class="st1" d="M52.6,1c9.1,0,16.6,7.4,16.6,16.6C69.1,26,62.8,33,54.6,34V21.7h5.7l0.5-4.1h-6.2v-2.1
		c0-1.1,0.9-2.1,2.1-2.1h4.1V9.3h-4.1c-3.4,0-6.2,2.8-6.2,6.2v2.1h-3.1v4.1h3.1V34C42.3,33,36,26,36,17.6C36,8.4,43.4,1,52.6,1
		L52.6,1z M52.6,1"/>
</g>
<g id="XMLID_52_">
	<path id="XMLID_53_" class="st1" d="M52.5,36C43.4,36,36,43.4,36,52.5C36,61.6,43.4,69,52.5,69C61.6,69,69,61.6,69,52.5
		C69,43.4,61.6,36,52.5,36L52.5,36z M59.9,48.7c0,0.2,0,0.3,0,0.5c0,5-3.8,10.8-10.8,10.8c-2.1,0-4.1-0.6-5.8-1.7
		c0.3,0,0.6,0.1,0.9,0.1c1.8,0,3.4-0.6,4.7-1.6c-1.7,0-3.1-1.1-3.5-2.6c0.2,0,0.5,0.1,0.7,0.1c0.3,0,0.7,0,1-0.1
		c-1.7-0.3-3-1.9-3-3.7c0,0,0,0,0,0c0.5,0.3,1.1,0.5,1.7,0.5c-1-0.7-1.7-1.8-1.7-3.2c0-0.7,0.2-1.3,0.5-1.9c1.9,2.3,4.7,3.8,7.8,4
		c-0.1-0.3-0.1-0.6-0.1-0.9c0-2.1,1.7-3.8,3.8-3.8c1.1,0,2.1,0.5,2.8,1.2c0.9-0.2,1.7-0.5,2.4-0.9c-0.3,0.9-0.9,1.6-1.7,2.1
		c0.8-0.1,1.5-0.3,2.2-0.6C61.2,47.5,60.6,48.2,59.9,48.7L59.9,48.7z M59.9,48.7"/>
</g>
<g id="XMLID_40_">
	<path id="XMLID_49_" class="st1" d="M50.3,90.2c-0.1-0.1-0.2-0.1-0.3-0.2c-0.3-0.1-0.7-0.2-1.1-0.2h0c-1.7,0-3.1,1-3.1,2.2
		c0,1.3,1.3,2.2,2.9,2.2c2.1,0,3.2-0.7,3.2-2.2c0-0.1,0-0.3,0-0.4C51.6,91.1,51.1,90.8,50.3,90.2L50.3,90.2z M50.3,90.2"/>
	<path id="XMLID_46_" class="st1" d="M49.1,85.9L49.1,85.9c0.4,0,0.7-0.2,1-0.5c0.4-0.5,0.6-1.2,0.5-2c-0.2-1.5-1.2-2.7-2.3-2.7l0,0
		c-0.4,0-0.7,0.2-1,0.5c-0.4,0.5-0.6,1.2-0.5,2C47,84.6,48,85.8,49.1,85.9L49.1,85.9z M49.1,85.9"/>
	<path id="XMLID_41_" class="st1" d="M52.5,71C43.4,71,36,78.4,36,87.5c0,9.1,7.4,16.5,16.5,16.5c9.1,0,16.5-7.4,16.5-16.5
		C69,78.4,61.6,71,52.5,71L52.5,71z M50.6,95.5c-0.6,0.2-1.3,0.3-2,0.3c-0.8,0-1.5-0.1-2.3-0.3c-1.4-0.3-2.4-1-2.8-1.8
		c-0.2-0.4-0.3-0.8-0.3-1.2c0-0.4,0.1-0.8,0.3-1.2c0.7-1.6,2.7-2.7,4.9-2.7h0.1c-0.2-0.3-0.3-0.6-0.3-1c0-0.2,0-0.3,0.1-0.5
		c-2.3-0.1-4-1.7-4-3.9c0-1.6,1.2-3.1,3-3.7c0.5-0.2,1.1-0.3,1.6-0.3h4.9c0.2,0,0.3,0.1,0.4,0.3c0.1,0.2,0,0.3-0.1,0.4l-1.1,0.8
		c-0.1,0-0.1,0.1-0.2,0.1h-0.4c0.5,0.6,0.8,1.5,0.8,2.5c0,1.1-0.5,2.1-1.5,2.9c-0.8,0.6-0.8,0.8-0.8,1.1c0,0.2,0.5,0.8,1.1,1.2
		c1.4,1,1.9,1.9,1.9,3.5C53.8,93.5,52.5,95,50.6,95.5L50.6,95.5z M61.7,87.1c0,0.2-0.2,0.4-0.4,0.4h-2.8v2.8c0,0.2-0.2,0.4-0.4,0.4
		h-0.8c-0.2,0-0.4-0.2-0.4-0.4v-2.8h-2.8c-0.2,0-0.4-0.2-0.4-0.4v-0.8c0-0.2,0.2-0.4,0.4-0.4h2.8v-2.8c0-0.2,0.2-0.4,0.4-0.4h0.8
		c0.2,0,0.4,0.2,0.4,0.4v2.8h2.8c0.2,0,0.4,0.2,0.4,0.4V87.1z M61.7,87.1"/>
</g>
<path id="XMLID_34_" class="st1" d="M52.5,106c-9.1,0-16.5,7.4-16.5,16.5c0,9.1,7.4,16.5,16.5,16.5c9.1,0,16.5-7.4,16.5-16.5
	C69,113.4,61.6,106,52.5,106z M45.1,115.9h14.8c0.3,0,0.6,0.1,0.8,0.3l-8.2,7.1l-8.2-7.1C44.5,116.1,44.8,115.9,45.1,115.9z
	 M43.1,117.3l6,5.2l-6,5.1V117.3z M59.9,129.1H45.1c-0.3,0-0.6-0.1-0.8-0.3l6.1-5.2l2.1,1.9l2.1-1.9l6.1,5.2
	C60.5,128.9,60.2,129.1,59.9,129.1z M61.9,127.5l-6-5.1l6-5.2V127.5z"/>
</svg>
